<?xml version="1.0" encoding="UTF-8"?>
<svg version="1.1" xmlns="http://www.w3.org/2000/svg" width="771" height="324">
<path d="M0 0 C25.66759751 22.09919329 41.53407102 50.6464204 45.12890625 84.625 C47.48605289 118.01791068 38.660097 150.86962678 16.5390625 176.41796875 C13.91708636 179.35651363 11.19098115 182.18092557 8.44140625 185 C7.86261719 185.64066406 7.28382813 186.28132812 6.6875 186.94140625 C1.11801732 192.95756423 -5.78483952 197.45751051 -12.55859375 202 C-13.49445313 202.63164062 -14.4303125 203.26328125 -15.39453125 203.9140625 C-42.39325434 220.85595464 -76.51480469 225.00958847 -107.38623047 218.50927734 C-126.45087942 214.039862 -144.79122543 204.83267164 -159.55859375 192 C-160.36683594 191.32453125 -161.17507812 190.6490625 -162.0078125 189.953125 C-172.96888114 180.52350865 -181.51710281 169.61475611 -188.55859375 157 C-189.46738281 155.40285156 -189.46738281 155.40285156 -190.39453125 153.7734375 C-199.83406466 136.17221144 -203.9616445 116.85993216 -203.93359375 97 C-203.93271759 96.31780396 -203.93184143 95.63560791 -203.93093872 94.93273926 C-203.88290774 83.56152955 -202.95808043 72.89921013 -199.55859375 62 C-199.19652832 60.82655029 -199.19652832 60.82655029 -198.82714844 59.62939453 C-193.80138373 43.84722901 -186.56019786 29.46990331 -175.55859375 17 C-174.86121094 16.18273437 -174.16382813 15.36546875 -173.4453125 14.5234375 C-129.58695633 -35.80071541 -51.6292764 -43.05017113 0 0 Z " fill="#2B2B2B" transform="translate(267.55859375,66)"/>
<path d="M0 0 C25.66759751 22.09919329 41.53407102 50.6464204 45.12890625 84.625 C47.48605289 118.01791068 38.660097 150.86962678 16.5390625 176.41796875 C13.91708636 179.35651363 11.19098115 182.18092557 8.44140625 185 C7.86261719 185.64066406 7.28382813 186.28132812 6.6875 186.94140625 C1.11801732 192.95756423 -5.78483952 197.45751051 -12.55859375 202 C-13.49445313 202.63164062 -14.4303125 203.26328125 -15.39453125 203.9140625 C-42.39325434 220.85595464 -76.51480469 225.00958847 -107.38623047 218.50927734 C-126.45087942 214.039862 -144.79122543 204.83267164 -159.55859375 192 C-160.36683594 191.32453125 -161.17507812 190.6490625 -162.0078125 189.953125 C-172.96888114 180.52350865 -181.51710281 169.61475611 -188.55859375 157 C-189.46738281 155.40285156 -189.46738281 155.40285156 -190.39453125 153.7734375 C-199.83406466 136.17221144 -203.9616445 116.85993216 -203.93359375 97 C-203.93271759 96.31780396 -203.93184143 95.63560791 -203.93093872 94.93273926 C-203.88290774 83.56152955 -202.95808043 72.89921013 -199.55859375 62 C-199.19652832 60.82655029 -199.19652832 60.82655029 -198.82714844 59.62939453 C-193.80138373 43.84722901 -186.56019786 29.46990331 -175.55859375 17 C-174.86121094 16.18273437 -174.16382813 15.36546875 -173.4453125 14.5234375 C-129.58695633 -35.80071541 -51.6292764 -43.05017113 0 0 Z M-132.74609375 56.3125 C-133.66898193 56.5305127 -134.59187012 56.74852539 -135.54272461 56.97314453 C-153.02781939 61.20706686 -174.22746548 67.28941414 -184.62109375 83.25 C-191.07566905 94.36748913 -187.55279318 110.34500874 -184.55859375 122 C-184.36523438 122.98097656 -184.171875 123.96195312 -183.97265625 124.97265625 C-178.69603189 150.43065561 -159.64818486 173.68782401 -138.55859375 188 C-117.40660415 201.74906988 -88.33510512 209.26280743 -63.19921875 204.24609375 C-59.26802076 203.32961525 -55.42242868 202.16521933 -51.55859375 201 C-49.78935547 200.566875 -49.78935547 200.566875 -47.984375 200.125 C-22.41336475 193.71077123 -0.37199888 174.91749307 13.265625 152.765625 C16.83184095 146.74773425 19.67567762 140.41558363 22.44140625 134 C22.76882813 133.28714844 23.09625 132.57429688 23.43359375 131.83984375 C29.07692932 118.60418558 31.5570564 98.7974474 26.53125 85.1328125 C20.07974269 72.50728206 4.94002179 65.46684583 -7.96289062 61.20605469 C-20.96824352 57.18383074 -34.05024756 54.58125643 -47.55859375 53 C-48.30727722 52.91226318 -49.05596069 52.82452637 -49.82733154 52.73413086 C-55.88886279 52.07453823 -61.87009764 51.83958305 -67.96484375 51.83203125 C-68.92902222 51.82870285 -69.89320068 51.82537445 -70.88659668 51.82194519 C-72.91690601 51.8169143 -74.9472235 51.81453567 -76.97753906 51.81469727 C-80.02293186 51.81252543 -83.06795298 51.79436847 -86.11328125 51.77539062 C-101.91826069 51.72851591 -117.32395689 52.59272143 -132.74609375 56.3125 Z " fill="#FAFAFA" transform="translate(267.55859375,66)"/>
<path d="M0 0 C25.66759751 22.09919329 41.53407102 50.6464204 45.12890625 84.625 C47.48605289 118.01791068 38.660097 150.86962678 16.5390625 176.41796875 C13.91708636 179.35651363 11.19098115 182.18092557 8.44140625 185 C7.86261719 185.64066406 7.28382813 186.28132812 6.6875 186.94140625 C1.11801732 192.95756423 -5.78483952 197.45751051 -12.55859375 202 C-13.49445313 202.63164062 -14.4303125 203.26328125 -15.39453125 203.9140625 C-42.39325434 220.85595464 -76.51480469 225.00958847 -107.38623047 218.50927734 C-126.45087942 214.039862 -144.79122543 204.83267164 -159.55859375 192 C-160.36683594 191.32453125 -161.17507812 190.6490625 -162.0078125 189.953125 C-172.96888114 180.52350865 -181.51710281 169.61475611 -188.55859375 157 C-189.46738281 155.40285156 -189.46738281 155.40285156 -190.39453125 153.7734375 C-199.83406466 136.17221144 -203.9616445 116.85993216 -203.93359375 97 C-203.93271759 96.31780396 -203.93184143 95.63560791 -203.93093872 94.93273926 C-203.88290774 83.56152955 -202.95808043 72.89921013 -199.55859375 62 C-199.19652832 60.82655029 -199.19652832 60.82655029 -198.82714844 59.62939453 C-193.80138373 43.84722901 -186.56019786 29.46990331 -175.55859375 17 C-174.86121094 16.18273437 -174.16382813 15.36546875 -173.4453125 14.5234375 C-129.58695633 -35.80071541 -51.6292764 -43.05017113 0 0 Z M-147.55859375 1 C-148.3784375 1.60070312 -149.19828125 2.20140625 -150.04296875 2.8203125 C-173.29665235 20.51977231 -190.74050089 46.84474845 -195.55859375 76 C-195.66339012 78.65619163 -195.72248003 81.28534565 -195.7265625 83.94140625 C-195.7298909 84.70492905 -195.7332193 85.46845184 -195.73664856 86.25511169 C-195.74169873 87.86969402 -195.74405748 89.48428673 -195.74389648 91.09887695 C-195.74606503 93.53029363 -195.76419096 95.96124267 -195.78320312 98.39257812 C-195.82755405 110.20392463 -194.85954195 121.29511898 -191.05859375 132.5625 C-190.80867676 133.30918945 -190.55875977 134.05587891 -190.30126953 134.82519531 C-186.35176943 146.02902177 -180.65641056 157.43470181 -173.55859375 167 C-172.89859375 167 -172.23859375 167 -171.55859375 167 C-171.29304688 167.58265625 -171.0275 168.1653125 -170.75390625 168.765625 C-168.65713469 172.68508034 -165.55529869 175.74711551 -162.55859375 179 C-161.98238281 179.64195312 -161.40617187 180.28390625 -160.8125 180.9453125 C-151.08388295 191.28066051 -139.07612601 198.33579909 -126.2890625 204.20410156 C-124.85846041 204.86208164 -123.44096087 205.54846799 -122.02734375 206.2421875 C-96.89470332 217.65806995 -63.87169859 215.66759743 -38.35546875 206.578125 C-22.91713745 200.41255328 -9.61515864 191.35763359 2.44140625 180 C3.16972656 179.35933594 3.89804687 178.71867188 4.6484375 178.05859375 C16.71807479 166.94582861 24.59998285 152.12863026 30.44140625 137 C30.8384375 136.03835937 31.23546875 135.07671875 31.64453125 134.0859375 C36.44212595 121.94873897 37.70808899 110.25411299 37.75390625 97.3125 C37.75938477 96.18457031 37.76486328 95.05664062 37.77050781 93.89453125 C37.53555633 66.15405334 27.33918494 40.93195147 9.44140625 20 C8.72597656 19.08541016 8.72597656 19.08541016 7.99609375 18.15234375 C3.5535431 12.58011593 -1.96259067 8.361702 -7.55859375 4 C-8.35652344 3.34 -9.15445313 2.68 -9.9765625 2 C-23.08269477 -8.33488332 -39.21550753 -15.01377571 -55.55859375 -18 C-56.43491455 -18.17225098 -57.31123535 -18.34450195 -58.21411133 -18.52197266 C-89.49836566 -24.31411141 -122.04385724 -18.48824966 -147.55859375 1 Z " fill="#2D2D2D" transform="translate(267.55859375,66)"/>
<path d="M0 0 C4.01581611 2.40495202 6.76214329 5.24758302 9.51171875 9.0546875 C10.17171875 9.3846875 10.83171875 9.7146875 11.51171875 10.0546875 C11.73988281 9.46042969 11.96804688 8.86617187 12.203125 8.25390625 C13.87090107 5.45104677 15.63140832 4.47677378 18.44921875 2.8671875 C19.32449219 2.35800781 20.19976563 1.84882813 21.1015625 1.32421875 C27.96554476 -2.29133106 37.11932215 -2.16923551 44.51171875 -0.109375 C50.33504335 2.53597673 54.67099826 6.2676792 57.51171875 12.0546875 C59.46639052 18.45216343 59.77831365 24.23530685 59.70703125 30.8984375 C59.70420135 31.90813599 59.70137146 32.91783447 59.69845581 33.95812988 C59.68733405 37.15710717 59.66224438 40.355796 59.63671875 43.5546875 C59.6266786 45.73437093 59.61755457 47.91405879 59.609375 50.09375 C59.58742095 55.41417225 59.55294668 60.73438111 59.51171875 66.0546875 C53.24171875 66.0546875 46.97171875 66.0546875 40.51171875 66.0546875 C40.47433594 63.26 40.43695312 60.4653125 40.3984375 57.5859375 C40.35213515 54.85864747 40.30093326 52.13148996 40.24926758 49.40429688 C40.21615471 47.51896315 40.18808093 45.63353354 40.1652832 43.74804688 C40.13148499 41.02693078 40.07915845 38.30668262 40.0234375 35.5859375 C40.01704758 34.75227661 40.01065765 33.91861572 40.0040741 33.05969238 C39.86529021 27.44902469 38.83811159 23.18155355 36.51171875 18.0546875 C33.76050935 15.88860239 31.50092656 15.79055157 28.07421875 16.1171875 C23.50379833 16.7421379 21.34664666 18.33384462 18.51171875 22.0546875 C17.62473312 24.71564438 17.37110691 26.3187095 17.32226562 29.05126953 C17.29718933 30.24733322 17.29718933 30.24733322 17.27160645 31.46755981 C17.25803101 32.32389008 17.24445557 33.18022034 17.23046875 34.0625 C17.21205933 34.94372528 17.1936499 35.82495056 17.17468262 36.73287964 C17.09594042 40.50652861 17.02806471 44.28035419 16.95947266 48.05419922 C16.90788905 50.80705993 16.85060058 53.55976037 16.79296875 56.3125 C16.77939331 57.17287872 16.76581787 58.03325745 16.75183105 58.91970825 C16.62456676 64.94183949 16.62456676 64.94183949 15.51171875 66.0546875 C14.16904462 66.14100624 12.82197553 66.16175223 11.4765625 66.15234375 C10.66767578 66.14912109 9.85878906 66.14589844 9.02539062 66.14257812 C8.17525391 66.13419922 7.32511719 66.12582031 6.44921875 66.1171875 C5.59521484 66.11267578 4.74121094 66.10816406 3.86132812 66.10351562 C1.74476212 66.09169123 -0.3717681 66.07375519 -2.48828125 66.0546875 C-2.51801025 64.34539062 -2.51801025 64.34539062 -2.54833984 62.6015625 C-2.62482614 58.34467722 -2.71347486 54.08811473 -2.80566406 49.83154297 C-2.84377698 47.99469408 -2.87865964 46.15777504 -2.91015625 44.32080078 C-2.95619351 41.66934256 -3.01412109 39.01835994 -3.07421875 36.3671875 C-3.08576996 35.55540039 -3.09732117 34.74361328 -3.10922241 33.90722656 C-3.24254334 28.67223462 -3.91916836 24.06481322 -5.48828125 19.0546875 C-8.4445927 16.26730813 -9.92693316 16.04466343 -13.98828125 16.1171875 C-18.39048246 17.29634854 -21.24235795 18.95934913 -23.60606384 22.93452454 C-24.54032121 25.179751 -24.75557088 26.74560465 -24.79125977 29.16479492 C-24.80790176 29.96209518 -24.82454376 30.75939545 -24.84169006 31.58085632 C-24.85010422 32.4320253 -24.85851837 33.28319427 -24.8671875 34.16015625 C-24.88418198 35.03996658 -24.90117645 35.91977692 -24.91868591 36.82624817 C-24.97174949 39.63148875 -25.01209998 42.43671459 -25.05078125 45.2421875 C-25.09466683 48.05829874 -25.14129557 50.87429386 -25.19358826 53.69026184 C-25.22562224 55.44187189 -25.25248813 57.19358519 -25.27381897 58.94535828 C-25.37651206 64.94291831 -25.37651206 64.94291831 -26.48828125 66.0546875 C-32.42828125 66.0546875 -38.36828125 66.0546875 -44.48828125 66.0546875 C-44.48828125 44.2746875 -44.48828125 22.4946875 -44.48828125 0.0546875 C-38.21828125 0.0546875 -31.94828125 0.0546875 -25.48828125 0.0546875 C-25.15828125 1.7046875 -24.82828125 3.3546875 -24.48828125 5.0546875 C-23.74578125 4.4359375 -23.00328125 3.8171875 -22.23828125 3.1796875 C-15.77011911 -1.81843779 -7.81250945 -2.96801772 0 0 Z " fill="#272727" transform="translate(572.48828125,141.9453125)"/>
<path d="M0 0 C0.74886475 0.00523682 1.49772949 0.01047363 2.26928711 0.01586914 C3.07817383 0.0190918 3.88706055 0.02231445 4.72045898 0.02563477 C5.5705957 0.03401367 6.42073242 0.04239258 7.29663086 0.05102539 C8.15063477 0.05553711 9.00463867 0.06004883 9.88452148 0.06469727 C12.00108749 0.07652166 14.11761771 0.0944577 16.23413086 0.11352539 C17.84459462 3.33445291 17.37233927 6.84904501 17.36352539 10.38696289 C17.36615387 11.67005341 17.36615387 11.67005341 17.36883545 12.97906494 C17.37324815 15.8155722 17.37031801 18.65201746 17.36694336 21.48852539 C17.36761657 23.45385754 17.36858673 25.41918962 17.36984253 27.38452148 C17.37131871 31.50708813 17.36916748 35.62963313 17.36450195 39.75219727 C17.35880472 45.04533612 17.36208414 50.33842428 17.36807442 55.63156128 C17.37168216 59.69092188 17.37054046 63.75027039 17.36794662 67.80963135 C17.36727795 69.76173916 17.36810372 71.71384805 17.37042618 73.66595459 C17.37295618 76.3906954 17.36910715 79.11535328 17.36352539 81.84008789 C17.36554962 82.65262024 17.36757385 83.46515259 17.36965942 84.30230713 C17.34839493 89.88499726 17.34839493 89.88499726 16.23413086 92.11352539 C10.29413086 92.11352539 4.35413086 92.11352539 -1.76586914 92.11352539 C-2.42586914 90.13352539 -3.08586914 88.15352539 -3.76586914 86.11352539 C-4.40524414 86.71165039 -5.04461914 87.30977539 -5.70336914 87.92602539 C-12.34045921 92.66680401 -18.70348497 93.77397591 -26.77368164 92.80883789 C-35.22508992 90.84493362 -42.02723942 85.27188092 -46.76586914 78.11352539 C-51.71432529 68.09591905 -53.58456944 57.83530727 -50.57836914 46.86352539 C-47.55185824 38.07960539 -42.69033507 31.37451348 -34.48071289 26.85571289 C-27.3748094 23.63497058 -20.47105207 22.73230571 -12.91821289 24.94946289 C-6.45701133 27.4223832 -6.45701133 27.4223832 -3.76586914 30.11352539 C-3.72828491 28.80363647 -3.72828491 28.80363647 -3.68994141 27.46728516 C-3.59499205 24.23749987 -3.49574885 21.00788385 -3.39355469 17.77832031 C-3.3501548 16.3786334 -3.3084835 14.9788918 -3.26855469 13.57910156 C-3.21097469 11.57091044 -3.14672914 9.5629139 -3.08227539 7.55493164 C-3.04561768 6.34522705 -3.00895996 5.13552246 -2.97119141 3.88916016 C-2.69632094 0.17334291 -2.69632094 0.17334291 0 0 Z M-27.21118164 44.54711914 C-32.06111208 50.10375373 -32.11440209 54.7642346 -32.04321289 61.87524414 C-31.54421505 67.70157108 -29.43834668 70.56051054 -25.14086914 74.55102539 C-20.55111734 76.67591048 -16.73416664 77.15741728 -11.76586914 76.11352539 C-7.01745572 73.49100715 -4.35619891 70.30067577 -2.76586914 65.11352539 C-2.14715457 58.96235146 -1.81628112 53.15338115 -4.45336914 47.48852539 C-5.21649414 46.70477539 -5.97961914 45.92102539 -6.76586914 45.11352539 C-7.50836914 44.35040039 -8.25086914 43.58727539 -9.01586914 42.80102539 C-15.34991215 38.91422627 -21.73523509 39.11557216 -27.21118164 44.54711914 Z " fill="#282828" transform="translate(497.765869140625,116.886474609375)"/>
<path d="M0 0 C1.0725 0.556875 2.145 1.11375 3.25 1.6875 C9.93540642 7.30931904 13.91951574 15.08618298 14.84375 23.734375 C15.12501604 27.81273254 15.27051661 31.91838172 15 36 C14 37 14 37 12.09544373 37.12025452 C11.26271439 37.11803391 10.42998505 37.11581329 9.57202148 37.11352539 C8.63112167 37.11344986 7.69022186 37.11337433 6.72080994 37.11329651 C5.69790359 37.10813522 4.67499725 37.10297394 3.62109375 37.09765625 C2.57929459 37.0962413 1.53749542 37.09482635 0.46412659 37.09336853 C-2.87811094 37.0877508 -6.22028257 37.0751953 -9.5625 37.0625 C-11.82226466 37.05748728 -14.08203037 37.05292398 -16.34179688 37.04882812 C-21.89455391 37.03777561 -27.44727225 37.02102024 -33 37 C-32.38842041 38.11552246 -31.77684082 39.23104492 -31.14672852 40.38037109 C-30.63070824 41.32159317 -30.63070824 41.32159317 -30.10426331 42.28182983 C-28.45796979 44.84336782 -26.79695125 45.85485648 -24 47 C-17.2426398 47.86264173 -10.80695316 47.87130211 -5 44 C-3.67298725 43.32083921 -2.34062104 42.65188761 -1 42 C0.32467011 43.21604113 1.63432405 44.44845222 2.9375 45.6875 C3.66839844 46.37199219 4.39929688 47.05648437 5.15234375 47.76171875 C7.19429843 50.23537632 7.65249999 51.85043641 8 55 C-2.78219768 62.87635717 -11.52143038 65.21015021 -25 64 C-33.67532699 62.37529212 -40.31697728 58.81032989 -46 52 C-52.36938258 41.82731703 -53.49686484 30.99387435 -51.5390625 19.23046875 C-48.43132563 8.79212903 -40.83913075 2.18498041 -31.5625 -2.875 C-21.54987126 -6.18610693 -9.117481 -5.10081296 0 0 Z M-31 17 C-31.66 18.98 -32.32 20.96 -33 23 C-23.76 23 -14.52 23 -5 23 C-6.93331462 16.9995808 -6.93331462 16.9995808 -11 13 C-17.52189908 9.73905046 -26.43132607 11.2725079 -31 17 Z " fill="#272727" transform="translate(694,145)"/>
<path d="M0 0 C6.27 0 12.54 0 19 0 C21.57841731 5.15683462 23.90727507 10.02704148 26.015625 15.34375 C26.27631775 15.99831177 26.5370105 16.65287354 26.80560303 17.32727051 C27.62369955 19.38355554 28.43693613 21.4417206 29.25 23.5 C29.80957288 24.90898247 30.36946611 26.31783776 30.9296875 27.7265625 C32.29015561 31.14958294 33.64627753 34.57430532 35 38 C37.3130126 34.5304811 38.73665171 30.90674757 40.2578125 27.05078125 C40.56572723 26.27816452 40.87364197 25.50554779 41.19088745 24.70951843 C42.17217294 22.24512294 43.14864105 19.77885091 44.125 17.3125 C44.79004786 15.63984799 45.45540873 13.96732041 46.12109375 12.29492188 C47.75162214 8.19827012 49.37562199 4.09911578 51 0 C57.6 0 64.2 0 71 0 C70.07699767 4.61501164 68.67937563 8.65839711 66.9375 12.9921875 C66.62999313 13.76735214 66.32248627 14.54251678 66.00566101 15.34117126 C65.00782677 17.85408149 64.00411997 20.36459559 63 22.875 C61.97164608 25.45638444 60.94442991 28.03821933 59.91740417 30.62013245 C59.23643046 32.3319481 58.55496408 34.04356784 57.8730011 35.75498962 C55.90934682 40.68860316 53.97468611 45.63154271 52.07421875 50.58984375 C51.66236328 51.66186035 51.25050781 52.73387695 50.82617188 53.83837891 C50.08379736 55.77740257 49.3465632 57.71840447 48.61523438 59.66162109 C48.29232422 60.50160645 47.96941406 61.3415918 47.63671875 62.20703125 C47.36561279 62.9235083 47.09450684 63.63998535 46.81518555 64.37817383 C46 66 46 66 44 67 C42.62451844 67.08308638 41.24514204 67.10736016 39.8671875 67.09765625 C39.06152344 67.09443359 38.25585938 67.09121094 37.42578125 67.08789062 C36.16314453 67.07532227 36.16314453 67.07532227 34.875 67.0625 C34.02550781 67.05798828 33.17601562 67.05347656 32.30078125 67.04882812 C30.20049091 67.03702874 28.1002367 67.01909306 26 67 C21.73024006 59.00764542 18.45007857 50.70950759 15.25 42.25 C14.20126221 39.49741245 13.14842423 36.74641172 12.09375 33.99609375 C11.83333923 33.3163298 11.57292847 32.63656586 11.30462646 31.936203 C8.54546417 24.76467693 5.61089409 17.66608288 2.59082031 10.60058594 C2.24631836 9.77977539 1.90181641 8.95896484 1.546875 8.11328125 C1.09586426 7.05814331 1.09586426 7.05814331 0.63574219 5.98168945 C0 4 0 4 0 0 Z " fill="#272727" transform="translate(341,142)"/>
<path d="M0 0 C0.804375 -0.00128906 1.60875 -0.00257813 2.4375 -0.00390625 C3.283125 -0.00003906 4.12875 0.00382813 5 0.0078125 C6.2684375 0.00201172 6.2684375 0.00201172 7.5625 -0.00390625 C8.366875 -0.00261719 9.17125 -0.00132812 10 0 C10.7425 0.00112793 11.485 0.00225586 12.25 0.00341797 C14 0.1328125 14 0.1328125 15 1.1328125 C15.09935148 3.15231459 15.12799508 5.17532165 15.12939453 7.19726562 C15.13254669 8.49531128 15.13569885 9.79335693 15.13894653 11.1307373 C15.13715675 12.55851271 15.1351058 13.98628781 15.1328125 15.4140625 C15.13348558 16.86755388 15.13445564 18.32104514 15.13571167 19.77453613 C15.13718846 22.82447377 15.1350347 25.87438216 15.13037109 28.92431641 C15.1246738 32.84211809 15.12795291 36.75985128 15.13394356 40.67765045 C15.13754969 43.68012004 15.13641035 46.68257327 15.13381577 49.68504333 C15.13314664 51.12999988 15.13397442 52.57495789 15.13629532 54.01991272 C15.13882265 56.03606133 15.13429052 58.05221512 15.12939453 60.06835938 C15.12859894 61.21784058 15.12780334 62.36732178 15.12698364 63.55163574 C15 66.1328125 15 66.1328125 14 67.1328125 C11.17413249 67.28603994 8.38956118 67.36444005 5.5625 67.3828125 C4.77294922 67.4034375 3.98339844 67.4240625 3.16992188 67.4453125 C0.87890625 67.4609375 0.87890625 67.4609375 -3 67.1328125 C-5.3459415 63.61390025 -5.24826692 62.18803961 -5.24291992 58.02490234 C-5.24599655 56.76704926 -5.24907318 55.50919617 -5.25224304 54.21322632 C-5.24534635 52.84006568 -5.23807946 51.46690686 -5.23046875 50.09375 C-5.22927667 48.68795819 -5.22882385 47.28216558 -5.2290802 45.87637329 C-5.22751669 42.93250533 -5.21923561 39.9887592 -5.20581055 37.04492188 C-5.18878961 33.26393047 -5.18499716 29.48307258 -5.18575573 25.70204735 C-5.18548441 22.80079871 -5.18000985 19.89957949 -5.17275429 16.99834061 C-5.16956396 15.60362597 -5.16759937 14.208908 -5.16686058 12.81418991 C-5.16470266 10.87009234 -5.15517371 8.9260071 -5.14526367 6.98193359 C-5.13954597 5.32005508 -5.13954597 5.32005508 -5.13371277 3.62460327 C-4.91792899 -0.39661343 -3.62848865 0.00551203 0 0 Z " fill="#272727" transform="translate(422,141.8671875)"/>
<path d="M0 0 C4.89400566 4.42790989 7.32380743 8.49744779 7.7890625 15.06640625 C7.40730777 20.43824062 4.86263121 24.22577102 1 27.8125 C-3.74503009 30.93423032 -7.77396428 31.07922379 -13.375 30.375 C-18.11796827 28.64881767 -21.38541544 25.9800931 -23.9375 21.625 C-25.86181218 17.06334926 -25.82813766 13.08080044 -24.375 8.375 C-22.47234489 4.47153694 -20.20194692 1.97117104 -16.6875 -0.5625 C-10.81497911 -2.44613878 -5.6125279 -2.70232825 0 0 Z " fill="#FC4C35" transform="translate(305.375,39.625)"/>
<path d="M0 0 C0.99 0.495 0.99 0.495 2 1 C1.13375 1.67095703 1.13375 1.67095703 0.25 2.35546875 C-0.4925 2.96003906 -1.235 3.56460937 -2 4.1875 C-2.7425 4.77917969 -3.485 5.37085938 -4.25 5.98046875 C-6.25962121 7.90280499 -6.25962121 7.90280499 -6.25 10.73828125 C-6.1675 11.48464844 -6.085 12.23101562 -6 13 C-7.6396875 13.8971875 -7.6396875 13.8971875 -9.3125 14.8125 C-11.92126764 16.30097024 -14.02050905 17.70795784 -16 20 C-19.24210998 23.24210998 -23.51364628 24.32294561 -27.75 25.9375 C-28.62527344 26.28490234 -29.50054687 26.63230469 -30.40234375 26.99023438 C-43.02374175 31.82570504 -54.80861518 33.49261678 -68.19799805 32.90893555 C-70.45922282 32.81156459 -72.72005724 32.74276305 -74.98242188 32.67773438 C-81.60383686 32.44651323 -87.71799309 32.22141295 -94 30 C-94.69937532 28.68352881 -95.36729133 27.34977849 -96 26 C-99.04199472 24.70768358 -99.04199472 24.70768358 -102 24 C-102 23.67 -102 23.34 -102 23 C-100.60386935 23.14295891 -99.20810692 23.28951558 -97.8125 23.4375 C-97.03519531 23.51871094 -96.25789062 23.59992188 -95.45703125 23.68359375 C-93 24 -93 24 -90.70654297 24.50708008 C-61.91652479 29.7503641 -31.86624481 21.44435893 -7.73828125 5.8984375 C-3.68775645 3.17540992 -3.68775645 3.17540992 0 0 Z " fill="#313131" transform="translate(261,253)"/>
<path d="M0 0 C5.73589153 3.3403133 11.49829199 8.80346972 13.6171875 15.16015625 C13.68521717 16.88810977 13.70214395 18.6185099 13.6796875 20.34765625 C13.67066406 21.24871094 13.66164062 22.14976562 13.65234375 23.078125 C13.64074219 23.76519531 13.62914062 24.45226562 13.6171875 25.16015625 C10.9771875 25.16015625 8.3371875 25.16015625 5.6171875 25.16015625 C5.39804688 24.556875 5.17890625 23.95359375 4.953125 23.33203125 C2.82034232 17.95672531 1.17063279 14.57014194 -4.3828125 12.16015625 C-9.01901389 11.36942172 -12.42533185 11.75234042 -16.7578125 13.59765625 C-20.39505649 17.14829919 -21.08936716 20.27380718 -22.3828125 25.16015625 C-25.3528125 25.16015625 -28.3228125 25.16015625 -31.3828125 25.16015625 C-31.80228213 18.4486421 -31.4236084 13.68257731 -27.3828125 8.16015625 C-19.71020031 0.17309274 -11.20838858 -3.95049761 0 0 Z " fill="#F3F3F3" transform="translate(148.3828125,164.83984375)"/>
<path d="M0 0 C6.29953408 2.78609531 10.67396231 7.97517657 14.12109375 13.8203125 C14.96631862 17.67078135 14.83749863 21.4582381 14.68359375 25.3828125 C12.04359375 25.3828125 9.40359375 25.3828125 6.68359375 25.3828125 C6.09578125 23.5265625 6.09578125 23.5265625 5.49609375 21.6328125 C3.74838604 16.93064651 1.16510799 14.62356962 -3.31640625 12.3828125 C-7.84457473 11.83037595 -11.41959594 11.99363067 -15.62890625 13.8203125 C-19.17850915 17.20481759 -20.66123801 20.82623169 -22.31640625 25.3828125 C-24.62640625 25.3828125 -26.93640625 25.3828125 -29.31640625 25.3828125 C-29.66108577 19.03815614 -29.69852238 13.98444235 -26.31640625 8.3828125 C-18.63523526 0.39178535 -11.19588155 -2.98305107 0 0 Z " fill="#F7F7F7" transform="translate(244.31640625,164.6171875)"/>
<path d="M0 0 C3.84374979 2.44602259 5.93438209 4.52440477 7 9 C6.90630781 13.40353275 5.65120915 16.49856299 2.65234375 19.79296875 C-0.59091286 22.1621562 -4.08652856 22.42028479 -8 22 C-11.24288049 20.40804049 -13.20045028 19.05395191 -15.375 16.1875 C-16.58341074 11.95806242 -16.52254396 8.35246673 -14.9375 4.25 C-10.8706051 -0.47284569 -5.87988319 -1.91735321 0 0 Z " fill="#262627" transform="translate(432,116)"/>
<path d="M0 0 C2.84751688 2.57422579 4.74224881 5.53233148 6.8125 8.75 C10.27435997 14.0127908 13.80676832 18.91719708 18.35546875 23.30859375 C20 25 20 25 22.28125 27.8515625 C25.01930813 31.1637955 28.10384238 33.76033916 31.5 36.375 C32.10875977 36.84687744 32.71751953 37.31875488 33.34472656 37.80493164 C42.20791867 44.56454701 51.39998487 50.36297449 62 54 C62 53.34 62 52.68 62 52 C68.25365856 51.44163763 73.4754871 52.42787814 79.4375 54.1875 C80.14777344 54.3836792 80.85804688 54.5798584 81.58984375 54.78198242 C83.62109375 55.41796875 83.62109375 55.41796875 87 57 C87.69514564 58.65499086 88.36519906 60.32093777 89 62 C93.20903946 63.00462029 97.39747761 63.17790066 101.7109375 63.31640625 C103.57685547 63.37924805 103.57685547 63.37924805 105.48046875 63.44335938 C106.76566406 63.48267578 108.05085938 63.52199219 109.375 63.5625 C110.68339844 63.60568359 111.99179688 63.64886719 113.33984375 63.69335938 C116.55979797 63.79912429 119.77982531 63.90121579 123 64 C118.72471666 66.85018889 115.0335657 66.34195103 110 66.3125 C109.01829834 66.30758545 108.03659668 66.3026709 107.02514648 66.29760742 C78.44558436 65.84842433 50.68146825 55.84094422 29 37 C27.78763672 35.98679687 27.78763672 35.98679687 26.55078125 34.953125 C15.73497426 25.64847472 6.67114965 14.63504275 0 2 C0 1.34 0 0.68 0 0 Z " fill="#2A2A2A" transform="translate(79,221)"/>
<path d="M0 0 C0.99 0.33 1.98 0.66 3 1 C-2.87699508 4.39335097 -8.90193331 6.79116975 -15.375 8.75 C-16.04523193 8.96035889 -16.71546387 9.17071777 -17.40600586 9.38745117 C-28.15390483 12.50953897 -39.23503078 12.12063083 -50.3125 11.6875 C-51.53517578 11.65205078 -52.75785156 11.61660156 -54.01757812 11.58007812 C-65.59111057 11.1588795 -65.59111057 11.1588795 -71 9 C-71.69937532 7.68352881 -72.36729133 6.34977849 -73 5 C-76.04199472 3.70768358 -76.04199472 3.70768358 -79 3 C-79 2.67 -79 2.34 -79 2 C-77.60386935 2.14295891 -76.20810692 2.28951558 -74.8125 2.4375 C-74.03519531 2.51871094 -73.25789062 2.59992188 -72.45703125 2.68359375 C-70 3 -70 3 -67.85546875 3.5 C-64.19262311 4.14137379 -60.56330995 4.23264132 -56.85546875 4.31640625 C-56.08568192 4.33718735 -55.31589508 4.35796844 -54.52278137 4.37937927 C-52.07777333 4.44446049 -49.63266317 4.50356591 -47.1875 4.5625 C-45.52407823 4.60572468 -43.86066656 4.64934021 -42.19726562 4.69335938 C-38.13161352 4.80009907 -34.06585929 4.90148171 -30 5 C-29.505 6.485 -29.505 6.485 -29 8 C-23.42073648 7.55720131 -18.60799811 6.72073477 -13.34765625 4.828125 C-9.930368 3.62269221 -6.45086337 2.647933 -2.96875 1.6484375 C-1.02040846 1.17054476 -1.02040846 1.17054476 0 0 Z " fill="#313032" transform="translate(238,274)"/>
<path d="M0 0 C0.99 0.495 0.99 0.495 2 1 C2.02313425 12.43922943 2.04092063 23.87845332 2.05181217 35.31770134 C2.05703862 40.62896422 2.06413198 45.94021115 2.07543945 51.25146484 C2.08627675 56.37372114 2.09227864 61.49596204 2.09487724 66.61822891 C2.09672996 68.5759213 2.10034767 70.53361281 2.10573006 72.49129868 C2.11295164 75.22582595 2.11399046 77.960289 2.11352539 80.69482422 C2.11712067 81.51049866 2.12071594 82.3261731 2.12442017 83.16656494 C2.11405216 88.77189568 2.11405216 88.77189568 1 91 C-4.94 91 -10.88 91 -17 91 C-17.66 89.02 -18.32 87.04 -19 85 C-19.639375 85.598125 -20.27875 86.19625 -20.9375 86.8125 C-27.57459007 91.55327862 -33.93761583 92.66045052 -42.0078125 91.6953125 C-50.65643448 89.6855805 -56.90690689 84.05414558 -62 77 C-65.17073171 71.84756098 -65.17073171 71.84756098 -64.5625 68.828125 C-64.376875 68.22484375 -64.19125 67.6215625 -64 67 C-63.70867187 67.64066406 -63.41734375 68.28132813 -63.1171875 68.94140625 C-58.78003297 78.09307508 -54.60301872 84.19155335 -45 88 C-39.39847477 89.86717508 -32.65647275 89.99183036 -27.125 87.75 C-23.94531236 86.08865639 -23.94531236 86.08865639 -21.25 83.75 C-20.5075 83.1725 -19.765 82.595 -19 82 C-18.01 82.33 -17.02 82.66 -16 83 C-16 84.98 -16 86.96 -16 89 C-10.72 89 -5.44 89 0 89 C0 59.63 0 30.26 0 0 Z " fill="#161616" transform="translate(513,118)"/>
<path d="M0 0 C-1 3 -1 3 -3 4.25 C-9.89255021 5.97313755 -17.23867969 3.6463735 -24 2 C-24.33 0.68 -24.66 -0.64 -25 -2 C-30.28 -2 -35.56 -2 -41 -2 C-40.67 -1.01 -40.34 -0.02 -40 1 C-42.75078884 1.91692961 -44.35948913 2.10886083 -47.1875 2.0625 C-49.0746875 2.0315625 -49.0746875 2.0315625 -51 2 C-51.33 1.01 -51.66 0.02 -52 -1 C-52.66 -1 -53.32 -1 -54 -1 C-53.67 -1.99 -53.34 -2.98 -53 -4 C-39.22197005 -9.39870638 -13.44646398 -5.98198591 0 0 Z " fill="#262627" transform="translate(224,43)"/>
<path d="M0 0 C13.1254126 10.33277162 23.00174908 25.45820607 29 41 C29.1875 43.9375 29.1875 43.9375 29 46 C28.01 46.495 28.01 46.495 27 47 C27.061875 46.21625 27.12375 45.4325 27.1875 44.625 C27.125625 43.75875 27.06375 42.8925 27 42 C24.28450846 39.69328085 24.28450846 39.69328085 21.8125 40.375 C21.214375 40.58125 20.61625 40.7875 20 41 C18.3428892 38.11048311 16.70137532 35.21239261 15.0625 32.3125 C14.59392578 31.49587891 14.12535156 30.67925781 13.64257812 29.83789062 C13.19462891 29.04189453 12.74667969 28.24589844 12.28515625 27.42578125 C11.87144775 26.69786377 11.45773926 25.96994629 11.03149414 25.2199707 C9.91698275 22.82133116 9.41826727 20.60366372 9 18 C9.66 17.67 10.32 17.34 11 17 C9.58990208 12.68448055 7.49057376 10.08137977 4.375 6.8125 C0 2.20977918 0 2.20977918 0 0 Z " fill="#2C2C2C" transform="translate(275,74)"/>
<path d="M0 0 C0.33 0 0.66 0 1 0 C1 2.64 1 5.28 1 8 C1.66 8.33 2.32 8.66 3 9 C2.41974158 12.68366301 1.41183904 15.45527243 -0.4375 18.6875 C-0.86933594 19.45449219 -1.30117188 20.22148437 -1.74609375 21.01171875 C-3 23 -3 23 -5 25 C-5.433125 25.928125 -5.86625 26.85625 -6.3125 27.8125 C-8.11662863 31.22029852 -10.1758034 33.40479232 -13 36 C-14.65 35.34 -16.3 34.68 -18 34 C-16.80702436 31.38870888 -15.38909296 29.00315223 -13.828125 26.6015625 C-8.24312417 18.00591412 -3.68246296 9.58039145 0 0 Z " fill="#323232" transform="translate(297,203)"/>
<path d="M0 0 C1.9375 0.375 1.9375 0.375 4 1 C4.33 1.66 4.66 2.32 5 3 C6.99032585 3.94233505 9.01787029 4.80714812 11.0625 5.625 C12.16722656 6.07101563 13.27195313 6.51703125 14.41015625 6.9765625 C15.26480469 7.31429687 16.11945313 7.65203125 17 8 C17 8.66 17 9.32 17 10 C17.66 10.66 18.32 11.32 19 12 C18.34 12 17.68 12 17 12 C17 12.99 17 13.98 17 15 C12.84219269 13.65555931 8.80083782 12.13629902 4.75 10.5 C-0.77927628 8.3479625 -6.13964621 6.8863289 -12 6 C-12 5.67 -12 5.34 -12 5 C-6.555 4.01 -6.555 4.01 -1 3 C-0.67 2.01 -0.34 1.02 0 0 Z " fill="#363636" transform="translate(224,43)"/>
<path d="M0 0 C0.66 0.33 1.32 0.66 2 1 C1.195625 1.763125 0.39125 2.52625 -0.4375 3.3125 C-3.5219916 6.5474546 -4.11255481 8.69429435 -4.18945312 12.99658203 C-4.20617065 13.79395782 -4.22288818 14.59133362 -4.2401123 15.41287231 C-4.25368774 16.26920258 -4.26726318 17.12553284 -4.28125 18.0078125 C-4.29965942 18.88903778 -4.31806885 19.77026306 -4.33703613 20.67819214 C-4.41577833 24.45184111 -4.48365404 28.22566669 -4.55224609 31.99951172 C-4.6038297 34.75237243 -4.66111817 37.50507287 -4.71875 40.2578125 C-4.73232544 41.11819122 -4.74590088 41.97856995 -4.7598877 42.86502075 C-4.88715199 48.88715199 -4.88715199 48.88715199 -6 50 C-11.94 50 -17.88 50 -24 50 C-24.33 36.8 -24.66 23.6 -25 10 C-24.34 10 -23.68 10 -23 10 C-23 22.87 -23 35.74 -23 49 C-18.05 48.67 -13.1 48.34 -8 48 C-7.00434682 44.01738727 -6.92946323 40.97620238 -7.0078125 36.890625 C-7.02533979 35.48177817 -7.04224701 34.07292352 -7.05859375 32.6640625 C-7.08942238 30.46103869 -7.12482212 28.25841446 -7.17138672 26.05566406 C-7.53177374 8.03631285 -7.53177374 8.03631285 -1.8125 1.5 C-1.214375 1.005 -0.61625 0.51 0 0 Z " fill="#151516" transform="translate(594,158)"/>
<path d="M0 0 C16.50420843 2.84039819 36.94933987 15.43040371 47 29 C42.82554643 27.24069164 39.552939 24.38353974 36.0625 21.5625 C32.16949165 18.42084639 28.38139481 15.45258343 24 13 C22.68 14.32 21.36 15.64 20 17 C15.25 15.125 15.25 15.125 13 14 C13.33 12.35 13.66 10.7 14 9 C13.01 8.67 12.02 8.34 11 8 C11 7.34 11 6.68 11 6 C7.37 4.35 3.74 2.7 0 1 C0 0.67 0 0.34 0 0 Z " fill="#2C2C2C" transform="translate(228,45)"/>
<path d="M0 0 C0.66 0.33 1.32 0.66 2 1 C1.01 1.33 0.02 1.66 -1 2 C-1.33 2.66 -1.66 3.32 -2 4 C-3.97672945 5.39817449 -5.95278701 6.71230739 -8 8 C-8.71800781 8.45246094 -9.43601563 8.90492187 -10.17578125 9.37109375 C-12.11382662 10.58624475 -14.05524099 11.79563148 -16 13 C-15.34 14.32 -14.68 15.64 -14 17 C-14.99 17.495 -14.99 17.495 -16 18 C-16.61875 17.79375 -17.2375 17.5875 -17.875 17.375 C-20.10126556 16.74859497 -20.10126556 16.74859497 -22.1875 18.25 C-24.24637089 19.96772255 -24.24637089 19.96772255 -25 23 C-25.639375 23.144375 -26.27875 23.28875 -26.9375 23.4375 C-29.1682759 23.7903602 -29.1682759 23.7903602 -30.125 25.875 C-30.41375 26.57625 -30.7025 27.2775 -31 28 C-31.66 28.99 -32.32 29.98 -33 31 C-33.66 31 -34.32 31 -35 31 C-35.37125 31.8353125 -35.37125 31.8353125 -35.75 32.6875 C-37 35 -37 35 -38.875 37.25 C-41.47315604 40.61231958 -43.21011567 44.16317349 -45 48 C-45.66 48 -46.32 48 -47 48 C-47.33 48.99 -47.66 49.98 -48 51 C-48.33 50.34 -48.66 49.68 -49 49 C-44.65694265 39.00593752 -37.26593527 30.9433944 -30 23 C-29.2471875 22.16339844 -28.494375 21.32679687 -27.71875 20.46484375 C-19.90541381 12.19961685 -10.11344095 5.20508391 0 0 Z M-17 18 C-16.67 18.99 -16.34 19.98 -16 21 C-16.99 20.67 -17.98 20.34 -19 20 C-18.34 20 -17.68 20 -17 20 C-17 19.34 -17 18.68 -17 18 Z " fill="#212121" transform="translate(128,53)"/>
<path d="M0 0 C0.99 0.495 0.99 0.495 2 1 C2.391875 2.175625 2.78375 3.35125 3.1875 4.5625 C5.57456302 11.21047052 9.9516992 16.22455466 16.25 19.4375 C22.61948369 22.27828973 29.23491446 23.20455694 36.1015625 21.46875 C39.04484719 20.27587691 41.29542157 18.75829144 43.75 16.75 C44.4925 16.1725 45.235 15.595 46 15 C46.99 15.33 47.98 15.66 49 16 C49 17.98 49 19.96 49 22 C54.61 22 60.22 22 66 22 C66 22.66 66 23.32 66 24 C60.06 24 54.12 24 48 24 C47.34 22.02 46.68 20.04 46 18 C45.0409375 18.8971875 45.0409375 18.8971875 44.0625 19.8125 C37.42540993 24.55327862 31.06238417 25.66045052 22.9921875 24.6953125 C14.35131767 22.68738191 8.08129859 17.05735915 3 10 C0.68611301 6.11864117 0 4.55725822 0 0 Z " fill="#121213" transform="translate(448,185)"/>
<path d="M0 0 C2.84751688 2.57422579 4.74224881 5.53233148 6.8125 8.75 C10.27435997 14.0127908 13.80676832 18.91719708 18.35546875 23.30859375 C20 25 20 25 22.28125 27.8515625 C25.01928925 31.16377266 28.1037893 33.76044552 31.5 36.375 C32.11093506 36.84832764 32.72187012 37.32165527 33.35131836 37.80932617 C44.63081553 46.40883458 56.8083735 52.81064693 70 58 C69.505 58.99 69.505 58.99 69 60 C40.25234206 49.95103992 16.36897933 30.31068066 1 4 C0.62843935 2.67681008 0.28532498 1.34442499 0 0 Z " fill="#1A1A1A" transform="translate(79,221)"/>
<path d="M0 0 C1.32 0.33 2.64 0.66 4 1 C4.33 2.98 4.66 4.96 5 7 C5.66 6.34 6.32 5.68 7 5 C7.8599867 10.65134116 8.4618629 16.30948637 9 22 C8.01 22 7.02 22 6 22 C5.34 22.99 4.68 23.98 4 25 C3.81824219 24.21496094 3.63648438 23.42992187 3.44921875 22.62109375 C1.82750061 15.66417005 1.82750061 15.66417005 -0.6875 9 C-2 6 -2 6 -2 2 C-1.34 2 -0.68 2 0 2 C0 1.34 0 0.68 0 0 Z " fill="#2F2F2F" transform="translate(298,113)"/>
<path d="M0 0 C5.94 0 11.88 0 18 0 C18 1.32 18 2.64 18 4 C23.94 5.485 23.94 5.485 30 7 C26.25594056 7.93601486 24.00789752 7.83357813 20.26953125 7.29345703 C16.19700885 6.76686797 12.09959278 6.62957002 8 6.4375 C7.12988281 6.39431641 6.25976562 6.35113281 5.36328125 6.30664062 C3.24231781 6.20175782 1.12117567 6.10049925 -1 6 C-1 5.34 -1 4.68 -1 4 C-0.34 3.67 0.32 3.34 1 3 C0.67 2.01 0.34 1.02 0 0 Z " fill="#3C3C3E" transform="translate(182,40)"/>
<path d="M0 0 C1.423125 0.2165625 1.423125 0.2165625 2.875 0.4375 C6.69695175 0.9945456 10.52495687 1.32347528 14.375 1.62109375 C17 2 17 2 19.91015625 2.99609375 C25.87940464 4.78007216 32.26152135 4.47535488 38.4375 4.625 C39.74138672 4.66367187 41.04527344 4.70234375 42.38867188 4.7421875 C45.59230999 4.83606701 48.79594832 4.92175154 52 5 C47.72430206 7.85046529 44.03391283 7.34111634 39 7.3125 C38.02337402 7.30903564 37.04674805 7.30557129 36.04052734 7.30200195 C29.48739764 7.20602231 23.09886216 6.70424503 16.625 5.6875 C15.8721875 5.56995361 15.119375 5.45240723 14.34375 5.33129883 C9.28852205 4.44516176 4.7593501 2.91770653 0 1 C0 0.67 0 0.34 0 0 Z " fill="#1A181B" transform="translate(150,280)"/>
<path d="M0 0 C13.1254126 10.33277162 23.00174908 25.45820607 29 41 C29.1875 43.9375 29.1875 43.9375 29 46 C28.01 46.495 28.01 46.495 27 47 C26.95875 46.071875 26.9175 45.14375 26.875 44.1875 C26.0264142 38.00675569 22.38263732 31.38263732 18 27 C17.32558869 25.3364521 16.6599679 23.66933058 16 22 C14.1585362 18.335651 14.1585362 18.335651 11 16 C9.99915667 14.33383962 8.99929845 12.66708739 8 11 C5.94402855 8.59809072 3.80087347 6.30003552 1.64453125 3.98828125 C0 2 0 2 0 0 Z " fill="#1A1A1A" transform="translate(275,74)"/>
<path d="M0 0 C0.46148438 0.37511719 0.92296875 0.75023437 1.3984375 1.13671875 C3.55425384 2.82813987 5.76008376 4.42170919 8 6 C8.67804687 6.49886719 9.35609375 6.99773437 10.0546875 7.51171875 C18.30781575 12.63688202 28.62615371 12.13487756 38 11 C41.0245918 10.17012334 43.55815856 9.23705856 46.3203125 7.77734375 C46.87460937 7.52082031 47.42890625 7.26429688 48 7 C48.66 7.33 49.32 7.66 50 8 C48.41925436 8.81752303 46.83528777 9.62881997 45.25 10.4375 C44.36828125 10.88996094 43.4865625 11.34242188 42.578125 11.80859375 C34.17808708 15.69042946 23.35065808 15.04591823 14.625 12.5 C8.74299924 10.28428698 4.08864913 6.77009065 0 2 C0 1.34 0 0.68 0 0 Z " fill="#131314" transform="translate(648,195)"/>
<path d="M0 0 C0.66 0.66 1.32 1.32 2 2 C-0.3439244 7.27710354 -2.66965806 11.15080717 -7 15 C-9.475 14.01 -9.475 14.01 -12 13 C-10.33278289 9.38769626 -8.48963194 6.11203993 -6 3 C-2.75 2.125 -2.75 2.125 0 2 C0 1.34 0 0.68 0 0 Z " fill="#313131" transform="translate(291,224)"/>
<path d="M0 0 C4.00631009 2.03957605 6.57198777 4.22309209 9 8 C8.67 8.66 8.34 9.32 8 10 C6.29115995 8.37660195 4.62553283 6.70680947 3 5 C3 4.34 3 3.68 3 3 C-4.3362562 1.58109242 -4.3362562 1.58109242 -11.0625 3.9375 C-11.701875 4.618125 -12.34125 5.29875 -13 6 C-13.66 6 -14.32 6 -15 6 C-15.66 7.65 -16.32 9.3 -17 11 C-17.66 11 -18.32 11 -19 11 C-19 11.99 -19 12.98 -19 14 C-19.66 14 -20.32 14 -21 14 C-20.54625711 9.12226395 -19.47822112 6.47822112 -16 3 C-10.97443859 -0.47003049 -5.92431643 -0.87660617 0 0 Z " fill="#DF5246" transform="translate(302,38)"/>
<path d="M0 0 C2.50448906 3.75673358 2.1435277 5.41120043 1.53515625 9.71875 C0.42893053 14.43433992 -2.11304955 17.19752102 -5.625 20.375 C-10.17082946 22.5637327 -14.04381139 22.35261421 -19 22 C-15.7354972 18.7354972 -11.58952701 18.06763945 -7.0625 17.875 C-6.381875 17.91625 -5.70125 17.9575 -5 18 C-5 15.69 -5 13.38 -5 11 C-4.01 11 -3.02 11 -2 11 C-0.85185003 8.70370006 -0.69230191 6.92301914 -0.4375 4.375 C-0.35371094 3.55773438 -0.26992188 2.74046875 -0.18359375 1.8984375 C-0.09271484 0.95871094 -0.09271484 0.95871094 0 0 Z " fill="#E85042" transform="translate(311,48)"/>
<path d="M0 0 C1.34195528 4.02586585 -0.06993674 6.41806991 -1.60546875 10.16015625 C-1.88594559 10.86466415 -2.16642242 11.56917206 -2.45539856 12.29502869 C-3.35730332 14.55449231 -4.27216073 16.80844996 -5.1875 19.0625 C-5.78536852 20.55369062 -6.38238324 22.04522385 -6.97851562 23.53710938 C-8.1258893 26.40556344 -9.28120298 29.27060815 -10.44287109 32.13330078 C-12.07758983 36.16962656 -13.63922648 40.23312562 -15.16918945 44.31030273 C-16 46 -16 46 -18 47 C-17.0172197 43.661335 -16.01258042 40.32974119 -15 37 C-14.79503906 36.30519531 -14.59007812 35.61039063 -14.37890625 34.89453125 C-12.35542276 28.3967613 -9.5439781 22.25270064 -6.78515625 16.04296875 C-4.42876041 10.7344377 -2.20778064 5.37192709 0 0 Z " fill="#171717" transform="translate(404,159)"/>
<path d="M0 0 C-11.36939445 6.56463808 -24.75445219 11.28736426 -38 10 C-38 9.67 -38 9.34 -38 9 C-37.3294458 8.85900879 -36.6588916 8.71801758 -35.96801758 8.57275391 C-32.91517927 7.92813383 -29.86384776 7.27663755 -26.8125 6.625 C-25.75740234 6.40328125 -24.70230469 6.1815625 -23.61523438 5.953125 C-22.08286133 5.62441406 -22.08286133 5.62441406 -20.51953125 5.2890625 C-19.11344604 4.99056396 -19.11344604 4.99056396 -17.67895508 4.68603516 C-13.67949014 3.66183972 -10.11318504 2.05268959 -6.375 0.3125 C-3 -1 -3 -1 0 0 Z " fill="#1A1A1A" transform="translate(241,275)"/>
<path d="M0 0 C2 2 2 2 2.125 5.125 C2.08375 6.07375 2.0425 7.0225 2 8 C1.01 8 0.02 8 -1 8 C-1.70074844 11.153368 -2 13.72724974 -2 17 C-1.34 17.33 -0.68 17.66 0 18 C0.4140625 20.06640625 0.4140625 20.06640625 0.625 22.5625 C0.69976562 23.38878906 0.77453125 24.21507812 0.8515625 25.06640625 C0.90054688 25.70449219 0.94953125 26.34257812 1 27 C-1 26 -1 26 -2.0703125 22.90234375 C-2.433195 21.58379243 -2.78413384 20.26191367 -3.125 18.9375 C-3.30385742 18.2580835 -3.48271484 17.57866699 -3.66699219 16.87866211 C-4.87090868 12.08191483 -5.40071373 7.90874319 -5 3 C-4.67 3.99 -4.34 4.98 -4 6 C-3.34 6 -2.68 6 -2 6 C-2 4.68 -2 3.36 -2 2 C-1.34 2 -0.68 2 0 2 C0 1.34 0 0.68 0 0 Z " fill="#212121" transform="translate(70,174)"/>
<path d="M0 0 C5.15295677 0.47841765 8.5794421 3.10210911 12.6875 6 C13.39068359 6.48895752 14.09386719 6.97791504 14.81835938 7.48168945 C20.61869854 11.58273127 25.90588754 16.04058763 31 21 C26.87693275 21 25.85883259 19.35619474 22.8125 16.625 C17.28023256 11.79083534 11.37456212 7.91047285 5.08129883 4.13720703 C3.37503342 3.1119921 1.68560031 2.05884791 0 1 C0 0.67 0 0.34 0 0 Z " fill="#181718" transform="translate(244,52)"/>
<path d="M0 0 C0.66 0.33 1.32 0.66 2 1 C-6.19148936 20.53191489 -6.19148936 20.53191489 -13 29 C-13.33 28.34 -13.66 27.68 -14 27 C-13.0625 24.375 -13.0625 24.375 -12 22 C-11.34 22 -10.68 22 -10 22 C-9.731875 21.29875 -9.46375 20.5975 -9.1875 19.875 C-7.49579086 15.77928314 -5.45041567 11.88281471 -3.4375 7.9375 C-2.15948168 5.32589735 -1.03783122 2.71432781 0 0 Z " fill="#1A1A1A" transform="translate(304,204)"/>
<path d="M0 0 C-0.97582031 0.33773437 -1.95164063 0.67546875 -2.95703125 1.0234375 C-4.24226463 1.47373825 -5.52741665 1.92427126 -6.8125 2.375 C-7.45509766 2.59671875 -8.09769531 2.8184375 -8.75976562 3.046875 C-11.81686717 4.1239885 -14.28592791 5.19061861 -17 7 C-20.25770332 8.78648247 -23.24908541 10 -27 10 C-27 9.34 -27 8.68 -27 8 C-23.72973178 6.68608882 -20.45868982 5.37411484 -17.1875 4.0625 C-16.25873047 3.68931641 -15.32996094 3.31613281 -14.37304688 2.93164062 C-13.48037109 2.57392578 -12.58769531 2.21621094 -11.66796875 1.84765625 C-10.84578857 1.51773682 -10.0236084 1.18781738 -9.17651367 0.84790039 C-5.57646246 -0.55456488 -3.7019984 -1.14889605 0 0 Z " fill="#202020" transform="translate(158,43)"/>
<path d="M0 0 C0.66 0.99 1.32 1.98 2 3 C1.34 3 0.68 3 0 3 C0.33 5.64 0.66 8.28 1 11 C-2.75 14 -2.75 14 -5 14 C-5.33 14.66 -5.66 15.32 -6 16 C-5.52412884 9.97229862 -2.80277043 5.23321711 0 0 Z " fill="#242424" transform="translate(78,104)"/>
<path d="M0 0 C0.66 0 1.32 0 2 0 C2 1.98 2 3.96 2 6 C7.61 6 13.22 6 19 6 C19 6.66 19 7.32 19 8 C16.02077407 8.02683987 13.04178705 8.04676037 10.0625 8.0625 C8.78729492 8.07506836 8.78729492 8.07506836 7.48632812 8.08789062 C6.67744141 8.09111328 5.86855469 8.09433594 5.03515625 8.09765625 C4.2862915 8.10289307 3.53742676 8.10812988 2.76586914 8.11352539 C1 8 1 8 0 7 C-0.04092937 4.66702567 -0.04241723 2.33294775 0 0 Z " fill="#0A090B" transform="translate(495,201)"/>
<path d="M0 0 C0.99 0.495 0.99 0.495 2 1 C2.79034932 3.50525821 3.45966887 5.94912063 4.0625 8.5 C4.2387793 9.22380859 4.41505859 9.94761719 4.59667969 10.69335938 C5.80275237 15.78667957 6.62658718 20.77222055 7 26 C6.34 26.33 5.68 26.66 5 27 C4.87882812 25.92878906 4.75765625 24.85757813 4.6328125 23.75390625 C4.46402399 22.35671248 4.29472687 20.95958009 4.125 19.5625 C4.04636719 18.85544922 3.96773438 18.14839844 3.88671875 17.41992188 C3.66072324 15.60326568 3.33699273 13.79937478 3 12 C2.34 11.67 1.68 11.34 1 11 C0.5859375 8.49609375 0.5859375 8.49609375 0.375 5.4375 C0.30023438 4.42558594 0.22546875 3.41367188 0.1484375 2.37109375 C0.09945313 1.58863281 0.05046875 0.80617188 0 0 Z " fill="#1D1D1D" transform="translate(305,122)"/>
<path d="M0 0 C0.33 0 0.66 0 1 0 C1.17563129 4.4785979 1.22085338 8.02584132 -1 12 C-1.99 12.33 -2.98 12.66 -4 13 C-5.25 6.375 -5.25 6.375 -3 3 C-2.34 3 -1.68 3 -1 3 C-0.67 2.01 -0.34 1.02 0 0 Z " fill="#343434" transform="translate(72,178)"/>
<path d="M0 0 C5.12779375 2.98127544 7.75269769 6.03353764 11 11 C8.36 11 5.72 11 3 11 C3.33 9.35 3.66 7.7 4 6 C2.02 5.01 0.04 4.02 -2 3 C-1 1 -1 1 0 0 Z " fill="#29282A" transform="translate(269,70)"/>
<path d="M0 0 C4.00631009 2.03957605 6.57198777 4.22309209 9 8 C8.67 8.66 8.34 9.32 8 10 C6.29115995 8.37660195 4.62553283 6.70680947 3 5 C3 4.34 3 3.68 3 3 C1.27111445 2.83044205 -0.45812443 2.66448486 -2.1875 2.5 C-3.15042969 2.4071875 -4.11335938 2.314375 -5.10546875 2.21875 C-7.75187667 2.01875156 -10.34760865 1.96120817 -13 2 C-8.74402016 -0.83731989 -4.99683101 -0.63822452 0 0 Z " fill="#CE5244" transform="translate(302,38)"/>
<path d="M0 0 C3.74966096 3.36596241 4.98593875 7.38295082 6.75 12 C7.07871094 12.81984375 7.40742188 13.6396875 7.74609375 14.484375 C8.05160156 15.27328125 8.35710937 16.0621875 8.671875 16.875 C8.9512793 17.59429687 9.23068359 18.31359375 9.51855469 19.0546875 C10 21 10 21 9 24 C5.14020962 16.1430157 1.95274441 8.54753914 0 0 Z " fill="#1C1C1C" transform="translate(359,142)"/>
<path d="M0 0 C1.32 0 2.64 0 4 0 C4.309375 0.78375 4.61875 1.5675 4.9375 2.375 C5.92875038 4.92330128 5.92875038 4.92330128 7 7 C6.29488281 6.68289062 5.58976563 6.36578125 4.86328125 6.0390625 C1.87494121 4.95461714 -0.65069658 4.6035641 -3.8125 4.375 C-4.78832031 4.30023438 -5.76414062 4.22546875 -6.76953125 4.1484375 C-7.50558594 4.09945312 -8.24164062 4.05046875 -9 4 C-6.23776722 1.23776722 -3.79293383 1.42143709 0 1 C0 0.67 0 0.34 0 0 Z " fill="#1F1F21" transform="translate(679,153)"/>
<path d="M0 0 C0.66 0.66 1.32 1.32 2 2 C0 3 0 3 -3.3125 2.375 C-7.50828983 1.94830951 -8.6642727 2.61733764 -12 5 C-12.66 5 -13.32 5 -14 5 C-13 2 -13 2 -9.8125 0.25 C-6.24348105 -1.15263913 -3.72284738 -1.125512 0 0 Z " fill="#1C1C1C" transform="translate(432,116)"/>
<path d="M0 0 C0 0.66 0 1.32 0 2 C-2.05700369 3.50708218 -4.08286582 4.85798406 -6.25 6.1875 C-6.83652344 6.56841797 -7.42304688 6.94933594 -8.02734375 7.34179688 C-12.4219007 10.06247202 -12.4219007 10.06247202 -15.421875 9.73828125 C-15.94265625 9.49464844 -16.4634375 9.25101562 -17 9 C-16.25234375 8.60167969 -15.5046875 8.20335937 -14.734375 7.79296875 C-13.74953125 7.26316406 -12.7646875 6.73335938 -11.75 6.1875 C-10.77546875 5.66542969 -9.8009375 5.14335937 -8.796875 4.60546875 C-6.02207169 3.09244481 -6.02207169 3.09244481 -3.765625 1.30078125 C-2 0 -2 0 0 0 Z " fill="#181818" transform="translate(260,263)"/>
<path d="M0 0 C1.98 0.99 3.96 1.98 6 3 C5.01 4.485 5.01 4.485 4 6 C1.53540571 6 -0.61370553 5.61187038 -3 5 C-3.33 4.34 -3.66 3.68 -4 3 C-3.01 2.67 -2.02 2.34 -1 2 C-0.67 1.34 -0.34 0.68 0 0 Z " fill="#292929" transform="translate(251,57)"/>
<path d="M0 0 C2.50298979 3.75448468 2.12834335 5.39835025 1.55859375 9.703125 C0.72621565 13.12577059 -0.82071491 15.25831876 -3 18 C-3.33 17.01 -3.66 16.02 -4 15 C-3.319375 13.9790625 -3.319375 13.9790625 -2.625 12.9375 C-0.32125031 8.7730294 -0.26414511 4.69085289 0 0 Z " fill="#CA4A3F" transform="translate(311,48)"/>
<path d="M0 0 C1.65 0.33 3.3 0.66 5 1 C4.2575 1.515625 3.515 2.03125 2.75 2.5625 C-0.53628545 5.47534392 -1.98763759 8.12433906 -4 12 C-4.66 11.01 -5.32 10.02 -6 9 C-4.02 6.03 -2.04 3.06 0 0 Z " fill="#1D1D1E" transform="translate(665,156)"/>
<path d="M0 0 C1 2 2 4 3 6 C3.99 6.33 4.98 6.66 6 7 C6 9.31 6 11.62 6 14 C2.91971052 11.22773947 1.16983589 8.99693928 0 5 C-0.125 2.1875 -0.125 2.1875 0 0 Z " fill="#DA5247" transform="translate(280,52)"/>
<path d="M0 0 C1.65 0.99 3.3 1.98 5 3 C2.64046906 5.35953094 1.22104383 5.49141413 -2 6 C-2.33 4.68 -2.66 3.36 -3 2 C-2.01 1.34 -1.02 0.68 0 0 Z " fill="#262626" transform="translate(257,259)"/>
<path d="M0 0 C2 1 2 1 2 1 Z M-2 1 C-1.34 1.33 -0.68 1.66 0 2 C-0.7425 2.5775 -1.485 3.155 -2.25 3.75 C-4.66087643 5.72253526 -6.84042701 7.76044282 -9 10 C-9.99 9.67 -10.98 9.34 -12 9 C-11.34 9 -10.68 9 -10 9 C-9.79375 8.4225 -9.5875 7.845 -9.375 7.25 C-7.50249112 4.18589456 -5.03041481 2.84460032 -2 1 Z " fill="#1B1B1C" transform="translate(594,143)"/>
<path d="M0 0 C0.66 0.33 1.32 0.66 2 1 C0.59785066 2.36919284 -0.82228473 3.71998709 -2.25 5.0625 C-3.43335938 6.19365234 -3.43335938 6.19365234 -4.640625 7.34765625 C-7 9 -7 9 -9.296875 8.74609375 C-9.85890625 8.49988281 -10.4209375 8.25367188 -11 8 C-10.28972656 7.50628906 -9.57945312 7.01257813 -8.84765625 6.50390625 C-7.92855469 5.86324219 -7.00945312 5.22257812 -6.0625 4.5625 C-5.14597656 3.92441406 -4.22945313 3.28632813 -3.28515625 2.62890625 C-1.13879294 1.1939118 -1.13879294 1.1939118 0 0 Z " fill="#494949" transform="translate(261,253)"/>
<path d="M0 0 C0.8353125 0.556875 0.8353125 0.556875 1.6875 1.125 C1.3575 1.785 1.0275 2.445 0.6875 3.125 C-2.6125 3.125 -5.9125 3.125 -9.3125 3.125 C-6.49583292 0.30833292 -3.93207852 -1.48781349 0 0 Z " fill="#E64A38" transform="translate(301.3125,66.875)"/>
<path d="M0 0 C-3.63195496 2.42130331 -5.38349348 2.21022785 -9.6875 2.125 C-10.86699219 2.10695313 -12.04648438 2.08890625 -13.26171875 2.0703125 C-14.16535156 2.04710937 -15.06898438 2.02390625 -16 2 C-16 1.67 -16 1.34 -16 1 C-14.0852312 0.63571223 -12.16807707 0.28394694 -10.25 -0.0625 C-9.18265625 -0.25972656 -8.1153125 -0.45695312 -7.015625 -0.66015625 C-4.25228095 -0.97156937 -2.59053383 -0.8991416 0 0 Z " fill="#666666" transform="translate(216,277)"/>
<path d="M0 0 C0.33 0 0.66 0 1 0 C1 1.65 1 3.3 1 5 C2.32 5.33 3.64 5.66 5 6 C5 6.66 5 7.32 5 8 C3.02 8.66 1.04 9.32 -1 10 C-0.67 6.7 -0.34 3.4 0 0 Z " fill="#363636" transform="translate(303,182)"/>
<path d="M0 0 C3.16115776 1.36983503 3.9927092 1.9890638 6 5 C5.625 7.1875 5.625 7.1875 5 9 C4.01 9 3.02 9 2 9 C2.66 8.01 3.32 7.02 4 6 C2.68 4.02 1.36 2.04 0 0 Z " fill="#131313" transform="translate(696,192)"/>
<path d="M0 0 C0.66 0 1.32 0 2 0 C1 4 1 4 0 8 C-0.66 8 -1.32 8 -2 8 C-2.33 8.66 -2.66 9.32 -3 10 C-2.39009109 6.44219804 -1.4216319 3.3171411 0 0 Z " fill="#1D1D1D" transform="translate(392,142)"/>
<path d="M0 0 C1.65 0 3.3 0 5 0 C5.33 0.66 5.66 1.32 6 2 C5.21625 2.309375 4.4325 2.61875 3.625 2.9375 C1.07669872 3.92875038 1.07669872 3.92875038 -1 5 C-0.67 3.35 -0.34 1.7 0 0 Z " fill="#323234" transform="translate(418,142)"/>
<path d="M0 0 C0.33 0 0.66 0 1 0 C1.25 2.75 1.25 2.75 1 6 C-1 8.375 -1 8.375 -3 10 C-2.01 6.7 -1.02 3.4 0 0 Z " fill="#545454" transform="translate(297,203)"/>
<path d="M0 0 C0.66 0.33 1.32 0.66 2 1 C0.54744301 4.82946843 -1.42895561 6.12050295 -5 8 C-3.8141763 4.62496331 -2.72426311 2.35277269 0 0 Z " fill="#535353" transform="translate(228,178)"/>
</svg>
